<svg xmlns="http://www.w3.org/2000/svg" width="448" height="368" viewBox="0 0 448 368"><rect x="0.00" y="0.00" width="448.00" height="368.00" fill="#000000"/><rect x="24.00" y="24.00" width="400.00" height="125.26" rx="24.00" fill="#2b1508"/><rect x="44.00" y="40.00" width="22.00" height="22.00" rx="5.00" fill="#ff6600"/><text x="55.00" y="56.45" font-family="Inter" font-size="15.00" font-weight="600" fill="#ffffff" text-anchor="middle">Y</text><text x="404.00" y="57.18" font-family="Inter" font-size="17.00" font-weight="400" fill="#a68f80" text-anchor="end">5h</text><text x="76.00" y="57.18" font-family="Inter" font-size="17.00" font-weight="400" fill="#c9b3a4" text-anchor="start">try.cloudflare.com</text><path d="M44.00 130.26L62.93 130.26L53.47 113.36Z" fill="#ff6600"/><text x="69.93" y="131.26" font-family="Inter" font-size="26.00" font-weight="600" fill="#f5f5f7" text-anchor="start">776</text><rect x="136.26" y="113.36" width="22.68" height="14.74" rx="4.54" fill="#a68f80"/><path d="M140.80 127.10L140.80 132.26L147.60 127.10Z" fill="#a68f80"/><text x="165.94" y="131.26" font-family="Inter" font-size="26.00" font-weight="600" fill="#f5f5f7" text-anchor="start">301</text><text x="44.00" y="96.36" font-family="Inter" font-size="28.00" font-weight="600" fill="#f5f5f7" text-anchor="start">Cloudflare Quick Tunnels</text><rect x="24.00" y="165.26" width="400.00" height="178.74" rx="24.00" fill="#1a1a1f"/><text x="40.00" y="201.02" font-family="Inter" font-size="21.00" font-weight="600" fill="#84848d" text-anchor="start">2</text><text x="66.00" y="201.02" font-family="Inter" font-size="21.00" font-weight="400" fill="#f5f5f7" text-anchor="start">OpenJev</text><text x="408.00" y="201.02" font-family="Inter" font-size="17.00" font-weight="600" fill="#a0a0a8" text-anchor="end">670</text><path d="M363.01 199.52L373.09 199.52L368.05 190.52Z" fill="#ff6600"/><rect x="40.00" y="217.51" width="368.00" height="1.00" fill="#2a2a2f"/><text x="40.00" y="249.26" font-family="Inter" font-size="21.00" font-weight="600" fill="#84848d" text-anchor="start">3</text><text x="66.00" y="249.26" font-family="Inter" font-size="21.00" font-weight="400" fill="#f5f5f7" text-anchor="start">How to Write with an LLM</text><text x="408.00" y="249.26" font-family="Inter" font-size="17.00" font-weight="600" fill="#a0a0a8" text-anchor="end">562</text><path d="M362.94 247.76L373.02 247.76L367.98 238.76Z" fill="#ff6600"/><rect x="40.00" y="265.75" width="368.00" height="1.00" fill="#2a2a2f"/><text x="40.00" y="297.51" font-family="Inter" font-size="21.00" font-weight="600" fill="#84848d" text-anchor="start">4</text><text x="66.00" y="297.51" font-family="Inter" font-size="21.00" font-weight="400" fill="#f5f5f7" text-anchor="start">Saving another</text><text x="66.00" y="323.51" font-family="Inter" font-size="21.00" font-weight="400" fill="#f5f5f7" text-anchor="start">100TB of RAM</text><text x="408.00" y="297.51" font-family="Inter" font-size="17.00" font-weight="600" fill="#a0a0a8" text-anchor="end">421</text><path d="M365.94 296.01L376.02 296.01L370.98 287.01Z" fill="#ff6600"/></svg>