<svg xmlns="http://www.w3.org/2000/svg" width="448" height="368" viewBox="0 0 448 368"><rect x="0.00" y="0.00" width="448.00" height="368.00" fill="#000000"/><rect x="24.00" y="24.00" width="400.00" height="164.00" rx="24.00" fill="#0c2a1b"/><rect x="296.29" y="44.00" width="107.71" height="30.00" rx="15.00" fill="#30d158" fill-opacity="0.200"/><path d="M308.29 62.87L312.79 55.13L317.29 62.87Z" fill="#30d158"/><text x="392.00" y="65.18" font-family="Inter" font-size="17.00" font-weight="600" fill="#30d158" text-anchor="end">+11.60%</text><text x="44.00" y="68.45" font-family="Inter" font-size="26.00" font-weight="600" fill="#f5f5f7" text-anchor="start">BONK</text><text x="126.57" y="68.45" font-family="Inter" font-size="15.00" font-weight="600" fill="#8fb8a1" text-anchor="start" letter-spacing="1.40">BONK INU COM…</text><text x="44.00" y="145.64" font-family="Inter" font-size="28.00" font-weight="600" fill="#8fb8a1" text-anchor="start">$</text><text x="61.61" y="166.00" font-family="Inter" font-size="56.00" font-weight="600" fill="#f5f5f7" text-anchor="start">0.00004182</text><rect x="24.00" y="204.00" width="400.00" height="140.00" rx="24.00" fill="#1a1a1f"/><text x="40.00" y="328.00" font-family="Inter" font-size="15.00" font-weight="600" fill="#84848d" text-anchor="start" letter-spacing="1.40">24H</text><text x="408.00" y="328.00" font-family="Inter" font-size="17.00" font-weight="400" fill="#a0a0a8" text-anchor="end">$0.0000439</text><text x="303.39" y="328.00" font-family="Inter" font-size="15.00" font-weight="600" fill="#84848d" text-anchor="end">H</text><text x="278.40" y="328.00" font-family="Inter" font-size="17.00" font-weight="400" fill="#a0a0a8" text-anchor="end">$0.0000371</text><text x="179.26" y="328.00" font-family="Inter" font-size="15.00" font-weight="600" fill="#84848d" text-anchor="end">L</text><rect x="43.25" y="299.10" width="1.50" height="2.35" fill="#ff453a"/><rect x="41.50" y="300.42" width="5.00" height="2.00" rx="1.00" fill="#ff453a"/><rect x="51.25" y="298.73" width="1.50" height="2.91" fill="#30d158"/><rect x="49.50" y="299.95" width="5.00" height="2.00" rx="1.00" fill="#30d158"/><rect x="58.25" y="295.53" width="1.50" height="4.42" fill="#30d158"/><rect x="56.50" y="296.66" width="5.00" height="3.29" rx="1.00" fill="#30d158"/><rect x="66.25" y="294.03" width="1.50" height="5.17" fill="#ff453a"/><rect x="64.50" y="296.85" width="5.00" height="2.35" rx="1.00" fill="#ff453a"/><rect x="74.25" y="297.41" width="1.50" height="2.44" fill="#30d158"/><rect x="72.50" y="297.70" width="5.00" height="2.00" rx="1.00" fill="#30d158"/><rect x="81.25" y="296.38" width="1.50" height="3.29" fill="#ff453a"/><rect x="79.50" y="297.70" width="5.00" height="2.00" rx="1.00" fill="#ff453a"/><rect x="89.25" y="299.10" width="1.50" height="2.07" fill="#ff453a"/><rect x="87.50" y="299.20" width="5.00" height="2.00" rx="1.00" fill="#ff453a"/><rect x="97.25" y="295.91" width="1.50" height="5.26" fill="#ff453a"/><rect x="95.50" y="299.39" width="5.00" height="2.00" rx="1.00" fill="#ff453a"/><rect x="104.25" y="297.70" width="1.50" height="2.25" fill="#30d158"/><rect x="102.50" y="299.86" width="5.00" height="2.00" rx="1.00" fill="#30d158"/><rect x="112.25" y="297.13" width="1.50" height="3.19" fill="#ff453a"/><rect x="110.50" y="299.86" width="5.00" height="2.00" rx="1.00" fill="#ff453a"/><rect x="120.25" y="293.94" width="1.50" height="6.39" fill="#30d158"/><rect x="118.50" y="293.94" width="5.00" height="6.39" rx="1.00" fill="#30d158"/><rect x="127.25" y="287.92" width="1.50" height="8.27" fill="#30d158"/><rect x="125.50" y="288.21" width="5.00" height="6.11" rx="1.00" fill="#30d158"/><rect x="135.25" y="276.84" width="1.50" height="12.03" fill="#30d158"/><rect x="133.50" y="280.22" width="5.00" height="8.64" rx="1.00" fill="#30d158"/><rect x="143.25" y="279.00" width="1.50" height="7.33" fill="#ff453a"/><rect x="141.50" y="280.03" width="5.00" height="5.73" rx="1.00" fill="#ff453a"/><rect x="150.25" y="278.15" width="1.50" height="7.80" fill="#30d158"/><rect x="148.50" y="283.32" width="5.00" height="2.44" rx="1.00" fill="#30d158"/><rect x="158.25" y="279.66" width="1.50" height="5.82" fill="#30d158"/><rect x="156.50" y="279.85" width="5.00" height="3.57" rx="1.00" fill="#30d158"/><rect x="166.25" y="279.38" width="1.50" height="9.68" fill="#ff453a"/><rect x="164.50" y="279.66" width="5.00" height="8.17" rx="1.00" fill="#ff453a"/><rect x="173.25" y="282.57" width="1.50" height="5.73" fill="#30d158"/><rect x="171.50" y="282.95" width="5.00" height="4.89" rx="1.00" fill="#30d158"/><rect x="181.25" y="275.24" width="1.50" height="7.61" fill="#30d158"/><rect x="179.50" y="278.15" width="5.00" height="4.70" rx="1.00" fill="#30d158"/><rect x="189.25" y="277.12" width="1.50" height="3.29" fill="#30d158"/><rect x="187.50" y="277.87" width="5.00" height="2.00" rx="1.00" fill="#30d158"/><rect x="196.25" y="277.03" width="1.50" height="4.23" fill="#ff453a"/><rect x="194.50" y="278.72" width="5.00" height="2.44" rx="1.00" fill="#ff453a"/><rect x="204.25" y="281.16" width="1.50" height="7.61" fill="#ff453a"/><rect x="202.50" y="281.16" width="5.00" height="2.16" rx="1.00" fill="#ff453a"/><rect x="212.25" y="282.29" width="1.50" height="3.66" fill="#ff453a"/><rect x="210.50" y="283.51" width="5.00" height="2.00" rx="1.00" fill="#ff453a"/><rect x="219.25" y="277.40" width="1.50" height="7.89" fill="#30d158"/><rect x="217.50" y="277.78" width="5.00" height="5.92" rx="1.00" fill="#30d158"/><rect x="227.25" y="272.89" width="1.50" height="6.39" fill="#30d158"/><rect x="225.50" y="273.17" width="5.00" height="4.51" rx="1.00" fill="#30d158"/><rect x="235.25" y="273.08" width="1.50" height="3.38" fill="#ff453a"/><rect x="233.50" y="273.17" width="5.00" height="2.63" rx="1.00" fill="#ff453a"/><rect x="242.25" y="269.89" width="1.50" height="5.82" fill="#30d158"/><rect x="240.50" y="271.58" width="5.00" height="4.04" rx="1.00" fill="#30d158"/><rect x="250.25" y="256.45" width="1.50" height="14.94" fill="#30d158"/><rect x="248.50" y="260.02" width="5.00" height="11.37" rx="1.00" fill="#30d158"/><rect x="258.25" y="256.83" width="1.50" height="5.73" fill="#30d158"/><rect x="256.50" y="260.59" width="5.00" height="2.00" rx="1.00" fill="#30d158"/><rect x="265.25" y="252.41" width="1.50" height="10.24" fill="#30d158"/><rect x="263.50" y="260.30" width="5.00" height="2.00" rx="1.00" fill="#30d158"/><rect x="273.25" y="257.86" width="1.50" height="15.97" fill="#ff453a"/><rect x="271.50" y="260.40" width="5.00" height="12.59" rx="1.00" fill="#ff453a"/><rect x="281.25" y="264.25" width="1.50" height="9.30" fill="#30d158"/><rect x="279.50" y="265.94" width="5.00" height="7.05" rx="1.00" fill="#30d158"/><rect x="288.25" y="265.94" width="1.50" height="6.95" fill="#ff453a"/><rect x="286.50" y="265.94" width="5.00" height="5.07" rx="1.00" fill="#ff453a"/><rect x="296.25" y="265.47" width="1.50" height="5.73" fill="#30d158"/><rect x="294.50" y="267.44" width="5.00" height="3.57" rx="1.00" fill="#30d158"/><rect x="304.25" y="265.10" width="1.50" height="3.01" fill="#ff453a"/><rect x="302.50" y="267.44" width="5.00" height="2.00" rx="1.00" fill="#ff453a"/><rect x="311.25" y="267.44" width="1.50" height="4.32" fill="#ff453a"/><rect x="309.50" y="267.73" width="5.00" height="3.48" rx="1.00" fill="#ff453a"/><rect x="319.25" y="266.03" width="1.50" height="6.29" fill="#30d158"/><rect x="317.50" y="268.57" width="5.00" height="2.72" rx="1.00" fill="#30d158"/><rect x="327.25" y="263.78" width="1.50" height="6.29" fill="#30d158"/><rect x="325.50" y="264.16" width="5.00" height="4.42" rx="1.00" fill="#30d158"/><rect x="334.25" y="262.37" width="1.50" height="3.95" fill="#ff453a"/><rect x="332.50" y="264.53" width="5.00" height="2.00" rx="1.00" fill="#ff453a"/><rect x="342.25" y="259.36" width="1.50" height="6.86" fill="#30d158"/><rect x="340.50" y="259.93" width="5.00" height="5.73" rx="1.00" fill="#30d158"/><rect x="350.25" y="259.46" width="1.50" height="7.99" fill="#ff453a"/><rect x="348.50" y="259.74" width="5.00" height="2.35" rx="1.00" fill="#ff453a"/><rect x="357.25" y="260.40" width="1.50" height="5.82" fill="#ff453a"/><rect x="355.50" y="262.09" width="5.00" height="3.76" rx="1.00" fill="#ff453a"/><rect x="365.25" y="263.03" width="1.50" height="5.92" fill="#30d158"/><rect x="363.50" y="263.12" width="5.00" height="2.72" rx="1.00" fill="#30d158"/><rect x="373.25" y="249.22" width="1.50" height="13.43" fill="#30d158"/><rect x="371.50" y="249.41" width="5.00" height="13.25" rx="1.00" fill="#30d158"/><rect x="380.25" y="224.98" width="1.50" height="24.99" fill="#30d158"/><rect x="378.50" y="232.40" width="5.00" height="17.10" rx="1.00" fill="#30d158"/><rect x="388.25" y="226.58" width="1.50" height="8.83" fill="#30d158"/><rect x="386.50" y="226.58" width="5.00" height="5.92" rx="1.00" fill="#30d158"/><rect x="396.25" y="220.00" width="1.50" height="10.33" fill="#ff453a"/><rect x="394.50" y="226.48" width="5.00" height="2.00" rx="1.00" fill="#ff453a"/><rect x="403.25" y="225.82" width="1.50" height="4.04" fill="#ff453a"/><rect x="401.50" y="227.42" width="5.00" height="2.00" rx="1.00" fill="#ff453a"/></svg>