<svg xmlns="http://www.w3.org/2000/svg" width="448" height="368" viewBox="0 0 448 368"><rect x="0.00" y="0.00" width="448.00" height="368.00" fill="#000000"/><rect x="24.00" y="24.00" width="400.00" height="200.00" rx="24.00" fill="#102a3d"/><text x="404.00" y="54.91" font-family="Inter" font-size="17.00" font-weight="600" fill="#f5f5f7" text-anchor="end" fill-opacity="0.820">H 13°   L 8°</text><text x="44.00" y="54.91" font-family="Inter" font-size="15.00" font-weight="600" fill="#9ab3c6" text-anchor="start" letter-spacing="1.40">AMSTERDAM</text><text x="44.00" y="157.42" font-family="Inter" font-size="112.00" font-weight="600" fill="#f5f5f7" text-anchor="start">11°</text><text x="44.00" y="188.33" font-family="Inter" font-size="26.00" font-weight="600" fill="#f5f5f7" text-anchor="start" fill-opacity="0.900">Moderate rain</text><circle cx="332.34" cy="105.06" r="16.85" fill="#6fb3e0"/><circle cx="350.13" cy="91.96" r="21.53" fill="#6fb3e0"/><circle cx="372.59" cy="104.13" r="15.91" fill="#6fb3e0"/><rect x="315.50" y="104.13" width="73.01" height="18.72" rx="9.36" fill="#6fb3e0"/><line x1="332.24" y1="133.87" x2="326.00" y2="164.03" stroke="#6fb3e0" stroke-width="6.76" stroke-linecap="round"/><line x1="355.12" y1="133.87" x2="348.88" y2="164.03" stroke="#6fb3e0" stroke-width="6.76" stroke-linecap="round"/><line x1="378.00" y1="133.87" x2="371.76" y2="164.03" stroke="#6fb3e0" stroke-width="6.76" stroke-linecap="round"/><rect x="24.00" y="240.00" width="400.00" height="104.00" rx="24.00" fill="#1a1a1f"/><text x="57.33" y="266.90" font-family="Inter" font-size="15.00" font-weight="600" fill="#84848d" text-anchor="middle">09</text><circle cx="51.66" cy="288.64" r="4.86" fill="#6fb3e0"/><circle cx="56.79" cy="284.86" r="6.21" fill="#6fb3e0"/><circle cx="63.27" cy="288.37" r="4.59" fill="#6fb3e0"/><rect x="46.80" y="288.37" width="21.06" height="5.40" rx="2.70" fill="#6fb3e0"/><line x1="51.63" y1="296.95" x2="49.83" y2="305.65" stroke="#6fb3e0" stroke-width="1.95" stroke-linecap="round"/><line x1="58.23" y1="296.95" x2="56.43" y2="305.65" stroke="#6fb3e0" stroke-width="1.95" stroke-linecap="round"/><line x1="64.83" y1="296.95" x2="63.03" y2="305.65" stroke="#6fb3e0" stroke-width="1.95" stroke-linecap="round"/><text x="57.33" y="328.00" font-family="Inter" font-size="21.00" font-weight="600" fill="#f5f5f7" text-anchor="middle">11°</text><text x="124.00" y="266.90" font-family="Inter" font-size="15.00" font-weight="600" fill="#84848d" text-anchor="middle">10</text><circle cx="118.33" cy="288.64" r="4.86" fill="#6fb3e0"/><circle cx="123.46" cy="284.86" r="6.21" fill="#6fb3e0"/><circle cx="129.94" cy="288.37" r="4.59" fill="#6fb3e0"/><rect x="113.47" y="288.37" width="21.06" height="5.40" rx="2.70" fill="#6fb3e0"/><line x1="118.30" y1="296.95" x2="116.50" y2="305.65" stroke="#6fb3e0" stroke-width="1.95" stroke-linecap="round"/><line x1="124.90" y1="296.95" x2="123.10" y2="305.65" stroke="#6fb3e0" stroke-width="1.95" stroke-linecap="round"/><line x1="131.50" y1="296.95" x2="129.70" y2="305.65" stroke="#6fb3e0" stroke-width="1.95" stroke-linecap="round"/><text x="124.00" y="328.00" font-family="Inter" font-size="21.00" font-weight="600" fill="#f5f5f7" text-anchor="middle">11°</text><text x="190.67" y="266.90" font-family="Inter" font-size="15.00" font-weight="600" fill="#84848d" text-anchor="middle">11</text><circle cx="185.00" cy="288.64" r="4.86" fill="#8fc4ea"/><circle cx="190.13" cy="284.86" r="6.21" fill="#8fc4ea"/><circle cx="196.61" cy="288.37" r="4.59" fill="#8fc4ea"/><rect x="180.14" y="288.37" width="21.06" height="5.40" rx="2.70" fill="#8fc4ea"/><line x1="184.97" y1="298.60" x2="183.17" y2="304.00" stroke="#8fc4ea" stroke-width="1.95" stroke-linecap="round"/><line x1="191.57" y1="298.60" x2="189.77" y2="304.00" stroke="#8fc4ea" stroke-width="1.95" stroke-linecap="round"/><line x1="198.17" y1="298.60" x2="196.37" y2="304.00" stroke="#8fc4ea" stroke-width="1.95" stroke-linecap="round"/><text x="190.67" y="328.00" font-family="Inter" font-size="21.00" font-weight="600" fill="#f5f5f7" text-anchor="middle">12°</text><text x="257.33" y="266.90" font-family="Inter" font-size="15.00" font-weight="600" fill="#84848d" text-anchor="middle">12</text><circle cx="251.03" cy="292.60" r="5.40" fill="#c6cbd6"/><circle cx="256.73" cy="288.40" r="6.90" fill="#c6cbd6"/><circle cx="263.93" cy="292.30" r="5.10" fill="#c6cbd6"/><rect x="245.63" y="292.30" width="23.40" height="6.00" rx="3.00" fill="#c6cbd6"/><text x="257.33" y="328.00" font-family="Inter" font-size="21.00" font-weight="600" fill="#f5f5f7" text-anchor="middle">12°</text><text x="324.00" y="266.90" font-family="Inter" font-size="15.00" font-weight="600" fill="#84848d" text-anchor="middle">13</text><circle cx="329.10" cy="285.70" r="4.28" fill="#ffc24d"/><line x1="335.24" y1="285.70" x2="338.21" y2="285.70" stroke="#ffc24d" stroke-width="1.50" stroke-linecap="round"/><line x1="333.44" y1="290.04" x2="335.54" y2="292.14" stroke="#ffc24d" stroke-width="1.50" stroke-linecap="round"/><line x1="329.10" y1="291.84" x2="329.10" y2="294.81" stroke="#ffc24d" stroke-width="1.50" stroke-linecap="round"/><line x1="324.76" y1="290.04" x2="322.66" y2="292.14" stroke="#ffc24d" stroke-width="1.50" stroke-linecap="round"/><line x1="322.96" y1="285.70" x2="319.99" y2="285.70" stroke="#ffc24d" stroke-width="1.50" stroke-linecap="round"/><line x1="324.76" y1="281.36" x2="322.66" y2="279.26" stroke="#ffc24d" stroke-width="1.50" stroke-linecap="round"/><line x1="329.10" y1="279.56" x2="329.10" y2="276.59" stroke="#ffc24d" stroke-width="1.50" stroke-linecap="round"/><line x1="333.44" y1="281.36" x2="335.54" y2="279.26" stroke="#ffc24d" stroke-width="1.50" stroke-linecap="round"/><circle cx="316.70" cy="295.85" r="4.97" fill="#ffc24d"/><circle cx="321.95" cy="291.99" r="6.35" fill="#ffc24d"/><circle cx="328.57" cy="295.58" r="4.69" fill="#ffc24d"/><rect x="311.74" y="295.58" width="21.53" height="5.52" rx="2.76" fill="#ffc24d"/><text x="324.00" y="328.00" font-family="Inter" font-size="21.00" font-weight="600" fill="#f5f5f7" text-anchor="middle">13°</text><text x="390.67" y="266.90" font-family="Inter" font-size="15.00" font-weight="600" fill="#84848d" text-anchor="middle">14</text><circle cx="385.00" cy="288.64" r="4.86" fill="#6fb3e0"/><circle cx="390.13" cy="284.86" r="6.21" fill="#6fb3e0"/><circle cx="396.61" cy="288.37" r="4.59" fill="#6fb3e0"/><rect x="380.14" y="288.37" width="21.06" height="5.40" rx="2.70" fill="#6fb3e0"/><line x1="384.97" y1="296.95" x2="383.17" y2="305.65" stroke="#6fb3e0" stroke-width="1.95" stroke-linecap="round"/><line x1="391.57" y1="296.95" x2="389.77" y2="305.65" stroke="#6fb3e0" stroke-width="1.95" stroke-linecap="round"/><line x1="398.17" y1="296.95" x2="396.37" y2="305.65" stroke="#6fb3e0" stroke-width="1.95" stroke-linecap="round"/><text x="390.67" y="328.00" font-family="Inter" font-size="21.00" font-weight="600" fill="#f5f5f7" text-anchor="middle">12°</text></svg>